# xmcd
#
# Track frame offsets: 
#        150
#        12957
#        26211
#        37461
#        49221
#        60758
#        74535
#        87287
#        100892
#        113404
#        126030
#        139110
#        151799
#        162798
#        177270
#        192034
#        207433
#        226153
#        241748
#        254836
#        273444
#        286643
#        301309
#        316032
#        330208
#
# Disc length: 4664 seconds
#
# Revision: 2
# Processed by: cddbd v1.5.2PL0 Copyright (c) Steve Scherf et al.
# Submitted via: ExactAudioCopy v0.99pb4
#
DISCID=4d123619
DTITLE=Lowell Fulson - The Final Kent Years
DYEAR=2002
DGENRE=Blues
TTITLE0=I'm A Drifter
TTITLE1=Funky Broadway
TTITLE2=Lets Go Get Stoned
TTITLE3=Push Me
TTITLE4=The Letter
TTITLE5=I Cried (aka I Cried Like A Baby)
TTITLE6=Feel So Bad
TTITLE7=Everyday I Have The Blues
TTITLE8=Mellow Together
TTITLE9=Going To Chicago
TTITLE10=Confessin The Blues
TTITLE11=Tomorrow
TTITLE12=Blue Shadows
TTITLE13=Lets Talk It Over (aka Come Back Baby)
TTITLE14=Worried Life
TTITLE15=Welcome Home
TTITLE16=All I Want Is For You To Love Me
TTITLE17=When Things Go Wrong (aka It Hurts Me Too)
TTITLE18=Love Her With A Feeling
TTITLE19=Your One Success In On Me
TTITLE20=I Am Not Worried (aka Sittin' On top Of The World)
TTITLE21=Lovemaker
TTITLE22=Bending Like Willow Tree
TTITLE23=Get The Cash And Let The Credit Go
TTITLE24=My Mind Is Trying To Leave Me
EXTD=
EXTT0=
EXTT1=
EXTT2=
EXTT3=
EXTT4=
EXTT5=
EXTT6=
EXTT7=
EXTT8=
EXTT9=
EXTT10=
EXTT11=
EXTT12=
EXTT13=
EXTT14=
EXTT15=
EXTT16=
EXTT17=
EXTT18=
EXTT19=
EXTT20=
EXTT21=
EXTT22=
EXTT23=
EXTT24=
PLAYORDER=
